# xmcd
#
# Track frame offsets:
#	150
#	11288
#	22206
#	33348
#	45244
#	53548
#	65655
#	79239
#	92752
#	104557
#	118149
#	129209
#	141173
#	152145
#	161749
#	172743
#	183945
#	195041
#	204068
#	231057
#
# Disc length: 3250 seconds
#
# Revision: 2
# Processed by: cddbd v1.5.2PL0 Copyright (c) Steve Scherf et al.
# Submitted via: audiograbber 1.83.01
#
DISCID=f40cb014
DTITLE=Various Artist - Country Greats Vol18
DYEAR=2002
DGENRE=Country
TTITLE0=Don Gibson - Sea Of Heartbreak
TTITLE1=The Bellamy Brothers - Let Your Love Flow (Live) 
TTITLE2=Nev Nicolls - Blazing Diesels
TTITLE3=Stonewall Jackson - I Washed My Hands In Muddy Water
TTITLE4=Frankie Miller - Family Man
TTITLE5=Jack Scott - Family Man
TTITLE6=Willie Nelson - A Moment Isn't Very Kong
TTITLE7=Johnny Paycheck - Someone To Give My Love To
TTITLE8=Wilma Burgess - Misty Blue
TTITLE9=Lee Conway - Your Cheatin' Heart
TTITLE10=The Hawking Brothers - Truck Driver's Lament
TTITLE11=Barbara Fairchild - Colour Of My World
TTITLE12=Connie Smith - Then And Only Then
TTITLE13=Faron Young - Alone With You
TTITLE14=Jean Shepherd - A Satisfied Mind
TTITLE15=Don Gibson - Just One Time
TTITLE16=Ferlin Husky - San Antonio Rose
TTITLE17=Kitty Wells - I'll Reposees My Heart
TTITLE18=Jimmy Dean - To A Sleeping Beauty
TTITLE19=Lynn Anderson - It Must Be Love
EXTD=
EXTT0=
EXTT1=
EXTT2=
EXTT3=
EXTT4=
EXTT5=
EXTT6=
EXTT7=
EXTT8=
EXTT9=
EXTT10=
EXTT11=
EXTT12=
EXTT13=
EXTT14=
EXTT15=
EXTT16=
EXTT17=
EXTT18=
EXTT19=
PLAYORDER=
